<?xml version="1.0" encoding="utf-8"?>
<!-- Generator: Adobe Illustrator 26.1.0, SVG Export Plug-In . SVG Version: 6.00 Build 0)  -->
<svg version="1.1" id="Layer_1" xmlns="http://www.w3.org/2000/svg" xmlns:xlink="http://www.w3.org/1999/xlink" x="0px" y="0px"
	 viewBox="0 0 459 182" style="enable-background:new 0 0 459 182;" xml:space="preserve">
<style type="text/css">
	.st0{fill:#F50013;}
</style>
<path class="st0" d="M239,91.2c3.1-2.8,3.4-2.1,3.1-1.8c-1.2,1.8-2.4,3.6-3.8,5.2c-0.8,0.9-2,2-3.5,1.5c-1.5-0.4-1.4-2.1-1.9-3.8
	c-1.3,1.6-2.3,3.1-3.4,4.5c-0.8,1.2-1.9,2-3.2,2.3c-1.1,0.2-2.2,0.5-3.4,0.8c-0.6-1.9-1-3.9-1.2-5.9c0-1.6,1.1-3.1,0.3-5
	c-5,4-7,10.2-10.7,15.4l-1.7-1.1c0.2-5.7,1.6-11.3,2.7-17.7c-3.2,4.6-5.3,6-10.5,7c-1.6,5.3-2.2,11.2-5.8,15.8l-0.7,0.1
	c-3.3,0.7-4.5-0.4-4-4c0.1-1-0.1-1.8,0-3.2c0-0.3-0.1-0.1-0.2,0l0.4,0.3c0.1-0.2,0.2-0.4,0.2-0.6c0,0-0.2-0.1-0.4,0.2
	c-2.2,3.6-4.2,6.9-6.3,10.3c-0.2,0.1-0.3,0.1-0.5,0.2c-3.5,0.7-4.6-0.2-4.5-4.3c-0.1-1.8,0-3.6,0.4-5.3c1.1-3.2,0.8-7,3.1-10l2,1
	c0,0.4,0,0.8-0.1,1.2c-1.6,3.5-1.8,7.4-2.7,11.1c-0.5,2-0.4,2,0.7,5c2.9-2.3,4.4-5.6,6.3-8.7c-0.3-1.9,1.2-2.9,1.9-4.3
	c0.8-1.6,1.2-1.6,3.2-0.5c-0.7,3.4-2.1,6.6-0.4,10.5c1.7-2.1,3-4.4,3.9-6.9c1-2.4,1-5,2.1-7.4c-0.4-0.8-0.9-1.5-1.5-2.2
	c-0.4-0.2-0.7-0.6-0.9-1c-0.2-0.4-0.2-0.9-0.1-1.4c0.3-1.1,1.2-1.7,2.6-1.5l1,4.4c3.6,0.3,5.7-1.9,7.7-4c2.3-2.4,5.1-4.6,4.3-8.8
	c1.3-3.4,1.7-7.2,2.9-10.7c0.5-1.4,0.9-2.9,1.1-4.4c0.5-3.4,1.9-6.3,2.9-9.5c1-3.2,2-6.1,3.2-9.1s2.6-5.9,5-8c0.3,0,0.6,0,0.9,0.2
	c0.3,0.1,0.6,0.4,0.8,0.6c0.2,0.3,0.4,0.6,0.4,0.9c0.1,0.3,0.1,0.7,0,1c-0.6,3.2-0.3,6.7-2.6,9.3c-0.5-2.3,0.7-4.2,1-6.4
	c0.2-1.5,0.4-2.7-0.5-4c-4.3,6-5.6,13.3-7.7,20.2c-1.1,3.5-1.9,7.1-2.9,10.6c-0.4,1.5-1.4,3.2-0.4,5.3c0.6-1.5,1-2.8,1.5-3.9
	c0.4-1.4,1-2.7,1.7-3.9c1.4-2.1,1.4-5.2,3.6-6.8c0.8,1.8-1.3,2.8-1,4.5c-2.7,4.5-4,9.7-6.8,14.1c-0.5,0.9-0.8,1.9-1,2.9
	c-0.4,1.7-0.7,3.5-1.1,5.2c-0.3,1.7-0.6,3.2-0.9,4.9c-0.3,1.6-0.5,3.5-0.8,5.3c0,0.3,0.1,0.7,0.2,1l0-0.2c-0.2,0.1-0.4,0.2-0.5,0.4
	c0,0,0.1,0.3,0.2,0.5c0.2-0.2,0.3-0.4,0.3-0.7c2.1-2.9,4.1-5.6,6.3-8.2c0.9-1.2,2-2.2,3.1-3.1c0.5-0.3,1.5,0.1,2.4,0.2
	c-0.4,3.6-1,7.1-0.8,10.7c2.6,0.2,4.2-1.3,5.8-3.3c1.6-2.1,3.4-4.1,4.2-6.5c0.8-2.2,1.9-4.3,3.2-6.3c1.1-2,3-3.4,5.1-4
	c1.3-0.3,2.4,0.1,2.6,1.4c0.4,2,1.5,0.9,2.5,1c-1,3.9-3.1,7.7-1.7,12.5c1-0.5,2-1.1,2.9-1.8c1.2-1.3,2.3-2.7,3.3-4.1
	c0.8-1.1,1.7-2.3,2.4-3.4c0.6-0.9,0.9-2.4,1.6-3.5c2.1-3.4,3.5-7.2,4.1-11.2c0.7-3.7,1.6-7.4,2.5-11.5c-3.8,0.3-6.2,2.9-9.4,3.8
	c-3,0.9-5.6,3-9.4,3.5c0.7-0.9,1-1.7,1.5-1.9c1.4-0.4,2.7-1.2,4-1.7c3.9-1.6,7.7-3.6,11.6-5.3c0.8-0.3,1.5-0.9,2.1-1.5
	c0.6-0.7,1-1.5,1.2-2.4c1.2-4.2,2.3-8.3,3.5-12.5c0.3-0.7,0.7-1.3,1.2-1.8c0.2,0.1,0.4,0.2,0.6,0.4c0.2,0.2,0.3,0.4,0.4,0.6
	c0.1,0.2,0.1,0.5,0.1,0.7c0,0.3-0.1,0.5-0.2,0.7c-1.2,4-2.4,8-3.6,12.4c0.6,0.1,1.1,0.1,1.7,0c1.1-0.5,2.2-1,3.3-1.6
	c1.1-0.5,2.4,0,3-1.4c0.1-0.1,0.2-0.2,0.3-0.2c3.5-1.1,6.9-2.1,10.4-3.1c0.3-0.1,0.8,0.5,1.9,1.2c-2.6,0.6-4.6,0.6-6.2,1.5
	c-1.6,0.9-3.4,1-4.7,1.9c-1.6,1.2-3.5,1.2-5.2,1.9c-1.7,0.7-3.1,1.4-4.9,2.2c-1.1,4.7-2.2,9.8-3.4,14.9c-1.1,5-1.8,10-2.2,15.1
	c0,2,0.3,4,0.9,6c0.1,0.5,1.3,1.1,1.8,1c2-0.3,4-0.7,5.7-2.5c1.3-1.4,3-2.5,4.7-3.2c-0.3,0.6-0.6,1.5-1.1,1.9
	c-1.4,1.3-3.2,2.2-4.4,3.7c-1.4,1.8-3.9,0.6-5.1,2.5c-0.9-0.1-1.8-0.5-2.5-1.1c-0.7-0.6-1.3-1.4-1.6-2.4c-0.3-1.3-0.5-2.7-0.9-4.1
	c-0.4-1.5-0.4-3.2,0-4.7c0.2-0.9,0-1.9-0.4-2.7c-0.5,0.9-0.9,1.7-1.4,2.6c-0.1,0.2,0.1,0.6,0,0.8c-2.7,3.1-3.8,7.7-7.6,9.8
	c-0.6,0.5-1.2,0.9-1.8,1.2c-0.4,0.1-0.9,0.1-1.3,0c-0.4-0.1-0.9-0.4-1.2-0.7c-0.3-0.3-0.6-0.8-0.7-1.2c-0.1-0.5-0.2-1-0.1-1.5
	C243.1,89.2,243.6,88.2,239,91.2c0.6-0.1,1.2-1.3,5.6-9.9l-1.8-2.2c-3.9,3.2-3.9,3.2-6.9,9.8c-0.4,0.9-0.7,1.9-0.8,2.9
	C235.2,92.6,235.7,93.5,239,91.2z M199.6,89.5l0.4-0.4c-0.1-0.1-0.2-0.2-0.3-0.2c-0.2,0.1-0.3,0.2-0.5,0.4L199.6,89.5z"/>
<path class="st0" d="M91.6,135l5.7-5.6c0.4-0.3,0.7-0.7,1-1.1c1-1.7,2.1-3.2,3.3-4.7c1.4-1.9,2.4-4,3-6.4c0.2-1.2,0.6-2.3,1.3-3.2
	c0.6-0.9,1.5-1.7,2.4-2.3c0.9-0.5,2-0.9,3.1-0.9c1.1,0,2.2,0.2,3.2,0.6c0.1,0.6,0.2,1.3,0.4,1.9c0.5,1.2,1.2,2.2,2.2,0.6
	c2.8-0.1,4.4-2.5,6.6-3.7c0.5-0.3,1.1-0.5,1.8-0.9c1.5,2.4,0.1,4.4-0.5,6.3c-0.8,2.2-0.8,4.6-0.2,6.9c3.3-3.6,5.8-7.8,7.5-12.5
	c0.3-0.6,0.3-1.2,0.2-1.9c-0.7-2-0.1-3.4,1.3-4.9l2,1.2l-1.6,5.1c2.4,1.6,4.7,0.3,6.8,0c0.3-0.7,0.8-1.1,0.8-1.6
	c0-3.6,2.2-5.5,4.5-7.5c0.3-0.2,0.5-0.7,0.8-0.8c1-0.2,1.9-0.8,2.9,0.2c0.4,0.5,0.7,1.1,0.8,1.8c0.1,0.7,0,1.3-0.3,1.9
	c-1.3,2.6-2.9,4.9-5.5,5.9c-2.3,0.9-0.5,3.2-1.7,4.4c0.7,1,1.5,2,2.4,2.9c0.3,0.3,0.9,0.1,1.4,0c3.7-0.5,6.9-2.3,10-4.3
	c5-3.1,9.7-6.6,14.2-10.3c0.1-0.1,0.5,0.1,0.9,0.1c-1.4,3-4.3,4.4-6.6,6.2c-2.1,1.6-4.2,3.1-6.3,4.7c-2.5,1.9-4.9,4.1-8.2,4.6
	c-0.6,0.2-1.1,0.5-1.5,0.9c-1.9,1.3-4.1,0.6-6,0.2c-0.6-0.2-1.2-0.5-1.6-1.1c-0.4-0.5-0.6-1.2-0.7-1.9c-0.2-1.5-0.6-2.9-1-4.3
	c-1.1,0.4-2.2,0.6-3.4,0.7c-1-0.2-2-0.5-3-0.9l-6.8,12.5l-4.1,0.9c-1.5-1.2-1.6-2.7-1.3-4.4c0.3-2.3,0.6-4.5,0.9-7
	c-2.4,1.3-4.7,2.6-7,3.8c-0.3,0.2-0.6,0.5-0.7,0.7c-0.1,3.4-1.7,6-3.2,8.7c-1.2,2.3-3.3,2.7-5.4,2.8c-0.6,0-1.3-0.2-1.8-0.6
	s-0.9-1.1-1-1.7c-0.2-0.8-0.4-1.6-0.7-3.1c-0.5,0.8-0.9,1.3-1.1,1.7c-1.7,3.6-4.3,6.4-6.7,9.3c-0.8,1.1-2,1.8-3.4,2
	c-1.1,0.1-2.3,0.5-3.4,0.7c-1.3-0.8-2.4-2-3.1-3.4c-0.8-1.5-1.3-2.6-0.5-4c-1.1-3.2,0.1-6.4,0-9.9c-0.5,0.3-1,0.7-1.4,1.2
	C80,127,76,132.3,71.5,137.1c-2.3,2.7-5.1,4.9-8.2,6.4c-0.6,0.3-1.5-0.1-3.1-0.3c6.3-2.1,9.8-6.7,13.6-11c2.2-2.5,4.1-5.2,6-7.9
	c1.6-2.3,3.1-4.7,4.7-7.2c1.4-2.1,2.1-4.7,2.1-7.3c-0.1-1.4,0.2-2.8,0.7-4.1c1.4-2.7,1.6-5.6,2.2-8.5c1.6-6.5,3.5-12.8,5.8-19
	c1.6-5.1,3.8-10,6.5-14.6c0.8-1.3,1.8-2.4,3-3.3c0.9-0.7,1.6-1.9,3.2-0.9c1.5,1,2.2,2.1,2,3.7c-0.5,3.7-1.3,7.3-2.3,10.8
	c-1.8,5.5-4,10.8-6.1,16.2c-0.1,0.1-0.1,0.2-0.2,0.4c-2.2,4.1-4.3,8.2-6.5,12.3c-0.8,1.5-2.1,2.9-2.5,4.5s-1.8,2.3-2.2,3.7
	c-0.8,2.1-1.3,4.4-1.7,6.6c-0.4,2.9-0.5,5.8-0.7,8.8c-0.2,1.5-0.3,3.1-0.2,4.6C87.6,133.5,89.2,134.7,91.6,135z M106.6,61.1
	c-1.2,1.6-2.2,2.8-3.1,4.1c-2,3.3-2.8,7.2-4.3,10.7c-2.5,5.6-3.8,11.6-5.5,17.5c-0.5,1.6-1.1,3.1-1.4,4.8c-0.6,2.8-1.1,5.6-1.7,8.4
	c0.2,0,0.4,0,0.6-0.1c0.2-0.1,0.3-0.2,0.4-0.4c2.6-4.8,4.9-9.8,7.3-14.7c2.2-4.4,4.1-8.9,5.8-13.6c1.6-4.5,3.2-9,3.7-14
	C108.5,62.1,107.6,62.1,106.6,61.1L106.6,61.1z M113.8,117.7l-5.6-1.8c-2.4,3.1-2.5,6.7-2.2,10.7l3-0.7L113.8,117.7z M110,115.2
	l3.5,0.4l0.5-2.3c-1-0.7-2.1-2.2-3.6-1.2c-0.2,0.2-0.4,0.4-0.6,0.6c-0.2,0.2-0.3,0.5-0.3,0.8s0,0.6,0,0.9
	C109.7,114.7,109.8,115,110,115.2L110,115.2z M145.1,108.4c1.7-2.9,5.3-3.4,4.1-7.5C146.2,103.5,145.5,104.7,145.1,108.4
	L145.1,108.4z"/>
<path class="st0" d="M341.4,76.1l-2.3-1.6c-1.7-5.1-0.2-9.6,1.6-14c1-2.4,2.5-4.6,4.3-6.5c1.6-1.8,3.8-2.9,6.1-3.1
	c0.9-0.1,1.8,0.7,2.9,1.2c0.4-0.6,0.9-1.1,1-1.7c1.2-8.2,4.2-15.8,6.7-23.4c1.2-3.6,2.6-7.1,4.3-10.4c1.5-2.9,2.9-5.9,4.6-8.7
	c0.6-1,1.3-1.9,2.2-2.6c0.2-0.2,0.6-0.4,0.9-0.5s0.7,0,1,0.1c0.3,0.1,0.6,0.4,0.8,0.7c0.2,0.3,0.4,0.6,0.4,1
	c0.4,1.7,0.4,3.4,0.2,5.1c-0.9,4.1-2.1,8.2-3.6,12.1c-1.9,5.1-4.4,9.9-6.1,15c-0.1,0.2-0.2,0.5-0.4,0.7c-2.5,4.7-4.9,9.4-7.5,14
	c-2,3.6-2,3.5-2.5,7.7c-0.2,1-0.3,2-0.3,3c0,0.7,0.2,1.4,0.5,2c0.3,0.6,0.8,1.1,1.4,1.4c1.2,0.7,1.8,0.1,2.9-0.4
	c2.3-1.2,3.7-3.2,5.3-5c1.8-1.7,3.2-4,3.9-6.5c0.7-2.1,1.7-4,3.2-5.5c0.5-0.7,1.1-1.2,1.8-1.6c0.7-0.4,1.5-0.6,2.2-0.7
	c1.5,0.1,2.8,0.6,4-0.9c0.3-0.3,1.9,0.3,2.6,0.8c0.6,0.5,1,1.2,1.1,2c0.1,0.9,0,1.9-0.2,2.8c6,0.5,11.7-1.4,17.4-2.6
	c1.3-1.5,3.6-0.9,4.6-2.1c1.3-1.5,3.3-0.7,4.5-2.4c0.9-1.2,3.2-1.2,4.6-2.1c1.4-0.9,3.1-1.8,4.6-2.8c2.5-1.7,5.2-1.6,7.9-2.4
	c0.5,0,1,0,1.4,0.2l1.4,0.3c1.2,2.2,0.3,3.8-1.4,5.6c-0.4-0.9-0.6-1.4-0.8-2c-0.7-2.2-1.8-2.9-3.3-1.5c-1.4,1.4-3.1,0.6-4.5,1.8
	c-1.1,1.1-2.5,1.9-4,2.4c-0.7,0.3-1.3,0.7-1.9,1.1c-2.5,1.2-5.1,2.3-7.5,3.6c-6,3-12.7,3.3-19,5.1c-0.2,0.1-0.5,0.1-0.8,0.2
	c-1.1,0.4-2.4-1.2-3.2,0c-0.9,1.3-1.5,2.7-1.8,4.3c-0.6,3.1-2.9,4.7-4.7,6.6c-1.4,1.6-3.4,1.6-5.5,1.4c-2.5-0.3-3.4-2.2-4.2-4.9
	c-3.7,3.7-6.4,8.5-12,7.9c-0.9-0.9-1.7-1.9-2.3-2.9c-0.5-1.3-1-2.7-1.2-4.1c-1.1,2.5-2.4,4.2-3.2,6.4c-0.6,1.8-2.3,3.3-3.5,4.9
	C345,75.7,343,75.7,341.4,76.1z M357.9,49.7l0.7,0.4c2.5-4.8,5.2-9.5,7.5-14.4c2.5-5.6,4.8-11.4,6.7-17.3c0.9-2.8,2.1-5.7,2.1-8.9
	c0-1,0.1-1.8-1.3-2.5C366,20.3,361.6,34.9,357.9,49.7z M342.1,73.9c1.7-1.6,3.2-2.6,4.1-4c2.3-3.7,4.5-7.5,6.7-11.4
	c0.4-0.6,0.5-1.3,0.3-2.1c-0.1-0.7-0.5-1.4-1.1-1.8c-0.5-0.4-1-0.8-1.2-1c-3.7,1.8-5.7,5-7.2,8.4S340.8,69.1,342.1,73.9z
	 M377.6,49.9c-2.7,1.4-3.8,3.7-4.8,6.1c-0.6,1.6-1,3.4-1.1,5.1c-0.2,1.9,1.1,3,2.9,2.5c0.5-0.3,1-0.6,1.5-1c3-1.7,4-5.1,5.9-7.9
	C379.3,54.4,377.9,52.8,377.6,49.9z M381.9,48.6l-2.7,2.3l3.7,2L381.9,48.6z"/>
<path class="st0" d="M13.9,172.2c-0.3-3.4-2.3-6.7-1.1-10.3c0.4,0.6,2,0.5,0.9,1.9l1.7,7.7c1.4,0.7,2.8,1.2,4.3,1.7
	c1.9,0.4,3.4-1.1,4.6-2c2.3-1.6,4.3-3.8,5.7-6.3c0.9-1.6,1.9-3.2,2.8-4.9c1.7-3.1,3.9-5.9,4.8-9.5c0.9-3.4,3.1-6.2,3.1-9.8
	c2.4-4.2,2.7-9.4,4.7-13.8c0.6-1.4,0.5-3.3,0.9-4.8c2.3-8,4-16.2,5.6-24.5c1.6-7.3,2.6-14.8,3.1-22.3c0.1-2.6-0.1-5.3-0.6-7.9
	c-0.2-1.1-0.7-2.1-1.3-3c-0.7-0.9-1.5-1.6-2.4-2c-0.9-0.5-2-0.7-3-0.6c-1,0-2,0.4-2.9,0.9C40.6,65,37,68.5,34.4,72.8
	c-1.2,2-2.9,3.7-3.9,5.8c-3.2,6.2-5.9,12.8-7.9,19.6c-1.4,5.1-2.3,10.4-2.8,15.7c-0.4,3.6,0,7.2,1,10.7c-0.6,0.7-1.2,1.1-1.6-0.1
	c-1.5-5.3-1.8-10.8-0.8-16.1c0.7-5.5,2-10.8,3.9-15.9c1.4-3.7,2.5-7.6,4.5-11.1c0.8-1.4,1.2-3.2,2.1-4.6c2.2-3.5,4.6-6.7,7.3-9.8
	c1.8-1.9,3.4-4.2,6-5.3c1.8-0.7,3.4-1.8,5.3-2.4c2.1-0.5,4.4-0.2,6.4,0.9c2.3,1.1,3.4,3.6,4.2,5.8c1.3,3.4,1,7,1.1,10.6
	c-0.1,3.7-0.4,7.4-1,11.1c-0.4,3.5-1.2,7-1.9,10.5c-0.5,2.6-0.7,5.3-1.3,7.9c-1.6,6.5-3.2,13-5,19.5c-0.9,3.4-2,6.9-3.1,10.3
	c-1.1,3.4-1.9,7-3.4,10.1c-2.9,5.9-4.8,12.5-8.9,17.6c-2.6,3.4-4.9,7.2-9,9.2C20.1,175.4,18.1,175.6,13.9,172.2z"/>
<path class="st0" d="M324.1,78.2l0.3,1.4c-3,0.8-5.9,1.9-8.8,3.1c-2.6,1.3-5.6,1.6-7.7,3.9c-0.9,1-2.7,0.1-3.1,1.8
	c-1.9,0.1-2.4,1.6-2.8,3.2c-0.7,2.1-0.7,2.1-2.7,1.8c-0.6-0.1-1.2,0-1.8,0.2c-0.6,0.2-1.1,0.5-1.5,0.9c-4.9,3.9-9.6,8.3-13.8,13
	c-0.2-0.9-0.5-1.5-0.4-1.8c0.8-1.3,1.6-2.6,2.6-3.8c2.8-2.9,5.9-5.5,8.8-8.2c0.4-0.5,0.9-0.9,1.4-1.2c1.8-0.7,3.3-1.9,4.5-3.5
	c0.9-1.5,0.8-3.6,1.2-5.5c2.3-11,4.5-22.1,7-33.1c0.9-4,1.9-7.9,2.8-11.9c0.6-2.9,1.6-5.6,2-8.5c0.4-2.9,1.2-5.6,2-8.7
	c-1,0.2-2.1,0.1-2.6,0.6c-3,2.6-6.8,4.1-9.5,7.1c-0.5,0.6-1,1.1-1.6,1.5c-0.4,0.3-0.8,0.4-1.2,0.5c-0.4,0.1-0.9,0-1.3-0.1
	c0.4-0.7,0.7-1.6,1.3-2.1c8.2-7.4,18.5-14.3,26.5-15.1l0.5,2.4c-1.6,0.4-3.3,0.7-5,1.1c-1.5,0.4-2.6,0.9-2.7,3.3
	c-0.1,2.9-1.3,5.7-2,8.5c-0.7,2.8-1.2,6-1.9,8.9c-2.6,11.6-5.2,23.2-7.9,34.9c-1,4.2-2,8.4-3.1,12.9c0.8,0,1.3,0.1,1.7-0.1
	c2-1.1,4.1-2.1,6.1-3.2c1.4-0.8,3-0.8,4-1.7c1.3-0.9,2.8-1.5,4.4-1.7L324.1,78.2z"/>
<path class="st0" d="M272.5,86.5c2.8-3.5,5.6-5.6,8.5-8.8C279.8,80.9,276.4,84.4,272.5,86.5z"/>
<path class="st0" d="M226.7,53.7c0,1.2-0.2,2.4-0.6,3.6c-0.4,1.1-1.1,2.1-1.9,3c0-1.2,0.2-2.4,0.6-3.6
	C225.3,55.5,225.9,54.5,226.7,53.7z"/>
<path class="st0" d="M228.1,49.1c0.1,1.7,0.2,3.5-1.3,4.6C226.6,52,226.5,50.2,228.1,49.1z"/>
</svg>
