<svg width="661" height="646" viewBox="0 0 661 646" fill="none" xmlns="http://www.w3.org/2000/svg">
<path d="M333.34 645.64C256.533 645.799 187.717 622.965 126.891 577.137C89.2961 549.122 58.5597 513.017 36.9816 471.524C18.7999 437.306 7.08586 400.063 2.42109 361.642C-4.7983 303.344 4.20084 244.193 28.4396 190.624C45.8516 151.754 71.0029 116.792 102.377 87.8488C150.055 43.6103 206.385 16.1832 270.908 5.04779C289.52 1.76637 308.38 0.0775912 327.282 0C376.9 0 424.47 9.31566 469.664 29.8968C506.302 46.2513 539.555 69.2465 567.724 97.7061C610.895 141.111 640.587 195.953 653.254 255.682C658.652 280.379 660.987 305.64 660.205 330.901C657.851 400.855 635.668 464.093 591.868 519.38C551.489 570.378 499.779 606.189 437.871 627.702C411.359 636.844 383.739 642.425 355.741 644.297C348.223 644.838 340.727 645.207 333.34 645.64ZM251.427 500.489H252.495C253.258 498.323 254.064 496.156 254.674 493.99C273.748 433.127 292.852 372.272 311.984 311.425C313.352 307.354 313.19 302.928 311.527 298.968C297.726 263.294 284.048 227.562 270.494 191.773C270.153 190.405 269.335 189.202 268.186 188.377C267.037 187.552 265.632 187.158 264.218 187.266C258.095 187.266 251.95 187.071 245.849 186.616C241.736 186.448 237.66 185.779 233.711 184.623C227.936 182.674 225.648 177.149 227.174 170.628C227.701 167.997 229.192 165.653 231.358 164.053C233.524 162.452 236.211 161.707 238.897 161.962C247.788 162.396 256.635 163.046 265.504 163.371C293.832 164.389 322.313 164.649 350.685 162.959C356.808 162.591 362.91 162.049 369.033 161.594C379.253 160.836 389.473 159.926 399.715 159.428C402.377 159.229 405.011 160.078 407.049 161.793C409.088 163.507 410.366 165.949 410.611 168.592C411.918 176.694 407.996 182.024 399.475 182.955C389.037 184.082 378.556 184.862 368.096 185.815C366.811 185.815 365.569 186.226 364.217 186.443C402.09 291.927 439.767 396.912 477.792 502.85C478.49 500.879 478.816 499.991 479.1 499.081C488.448 468.513 497.927 438.009 507.058 407.398C513.856 384.585 520.938 361.902 524.774 338.288C529.284 310.45 528.217 283.066 518.607 256.311C512.122 239.061 503.326 222.76 492.458 207.847C483.894 195.65 476.441 182.89 472.976 168.18C465.175 135.077 484.264 104.79 517.866 97.1428C518.89 96.9045 519.914 96.5362 520.938 96.2546V95.0414C442.186 34.5113 353.692 14.2551 256.308 36.981C178.907 55.0274 120.114 100.219 75.0723 165.147C78.1013 165.537 79.8228 165.905 81.6097 165.949C89.2365 166.144 96.8634 166.664 104.512 166.317C125.867 165.342 147.222 164.151 168.556 162.786C174.527 162.417 180.301 164.714 182.48 168.917C187.1 177.756 182.873 185.62 172.718 186.898C167.009 187.613 161.278 188.155 155.568 188.805C151.385 189.281 147.222 189.801 142.494 190.364L251.427 500.489ZM329.265 341.69H328.284C327.848 342.946 327.391 344.181 326.977 345.438C322.335 359.628 317.737 373.818 313.074 387.986C301.002 424.671 288.915 461.342 276.814 497.998C265.976 530.913 255.132 563.828 244.28 596.744C241.774 604.37 240.793 603.416 249.117 605.626C285.501 615.629 323.46 618.701 360.992 614.682C382.889 612.346 404.492 607.817 425.472 601.163C428.588 600.167 429.242 598.997 428.022 595.877C397.906 518.507 367.849 441.151 337.85 363.809C335.003 356.4 332.141 349.034 329.265 341.711V341.69ZM201.133 587.233C152.612 459.052 104.091 330.857 55.5694 202.648C-5.90308 332.612 41.2309 513.856 201.133 587.255V587.233ZM479.536 575.838L480.538 576.401C553.647 534.35 601.108 473.04 621.962 392.059C631.292 356.168 633.424 318.801 628.237 282.091C623.297 245.413 610.877 210.123 591.738 178.384C591.659 181.956 591.79 185.529 592.13 189.086C594.134 222.623 588.6 255.162 578.075 286.922C569.206 313.634 559.966 340.195 550.858 366.82L480.756 571.786C480.385 573.108 479.95 574.494 479.536 575.859V575.838Z" fill="#B2B2B2" fill-opacity="0.2"/>
</svg>
